<?xml version="1.0" encoding="UTF-8"?>
<svg version="1.1" xmlns="http://www.w3.org/2000/svg" width="696" height="129">
<path d="M0 0 C229.68 0 459.36 0 696 0 C696 42.57 696 85.14 696 129 C466.32 129 236.64 129 0 129 C0 86.43 0 43.86 0 0 Z " fill="#426AE1" transform="translate(0,0)"/>
<path d="M0 0 C3.37548335 1.11509019 6.33215053 3.02060337 9.38549805 4.80981445 C21.18812989 11.56517049 32.90158904 17.1087658 46.07299805 20.68481445 C45.05112986 30.00364225 42.76529742 38.07414682 39.07299805 46.68481445 C39.40299805 47.01481445 39.73299805 47.34481445 40.07299805 47.68481445 C41.06299805 46.03481445 42.05299805 44.38481445 43.07299805 42.68481445 C45.05299805 43.17981445 45.05299805 43.17981445 47.07299805 43.68481445 C46.59662752 47.97214919 44.04303401 49.75763616 41.07299805 52.68481445 C39.67427029 54.33161846 38.29962397 55.9991365 36.94799805 57.68481445 C27.80183172 68.96508626 18.82849589 79.99589769 7.51049805 89.18481445 C6.96796387 89.64331787 6.42542969 90.10182129 5.86645508 90.57421875 C3.13375518 92.72465547 1.48754059 93.67958693 -2.0246582 93.72387695 C-5.40679896 92.51304325 -7.22514772 91.05218166 -9.80200195 88.55981445 C-10.66438477 87.7399707 -11.52676758 86.92012695 -12.4152832 86.07543945 C-13.24415039 85.2865332 -14.07301758 84.49762695 -14.92700195 83.68481445 C-16.27596865 82.5535845 -17.62972861 81.42803125 -18.98950195 80.30981445 C-23.17504944 76.68574285 -26.5247592 72.47420527 -29.9465332 68.13793945 C-31.80575131 65.73227488 -31.80575131 65.73227488 -33.6887207 63.98168945 C-34.92700195 62.68481445 -34.92700195 62.68481445 -34.92700195 60.68481445 C-35.58700195 60.68481445 -36.24700195 60.68481445 -36.92700195 60.68481445 C-38.87231445 58.4543457 -38.87231445 58.4543457 -41.05200195 55.49731445 C-41.77645508 54.53438477 -42.5009082 53.57145508 -43.24731445 52.5793457 C-44.99733181 49.56361812 -45.31340665 48.09390109 -44.92700195 44.68481445 C-42.45200195 46.66481445 -42.45200195 46.66481445 -39.92700195 48.68481445 C-40.13381592 48.08531982 -40.34062988 47.4858252 -40.55371094 46.86816406 C-41.49709834 44.12171723 -42.43085791 41.372088 -43.36450195 38.62231445 C-43.68999023 37.67936523 -44.01547852 36.73641602 -44.35083008 35.76489258 C-46.05663031 30.71783417 -47.40441321 25.99166637 -47.92700195 20.68481445 C-46.9112207 20.40637695 -45.89543945 20.12793945 -44.84887695 19.84106445 C-30.66221976 15.77147172 -16.41126394 8.98564031 -4.12231445 0.8215332 C-1.92700195 -0.31518555 -1.92700195 -0.31518555 0 0 Z " fill="#426AE1" transform="translate(74.927001953125,16.315185546875)"/>
<path d="M0 0 C3.63 0 7.26 0 11 0 C12.32 9.57 13.64 19.14 15 29 C15.33 29 15.66 29 16 29 C17.65 19.43 19.3 9.86 21 0 C24.3 0 27.6 0 31 0 C33.76613078 2.76613078 33.49017288 9.76268371 34.0625 13.5 C34.24876953 14.66015625 34.43503906 15.8203125 34.62695312 17.015625 C35.61694396 23.42699425 36.21481848 29.51386783 36 36 C36.66 36 37.32 36 38 36 C38.01981934 35.4423999 38.03963867 34.8847998 38.06005859 34.31030273 C38.48948177 22.7621408 39.19293777 11.42133504 41 0 C44.96 0 48.92 0 53 0 C52.72285156 1.65644531 52.44570313 3.31289063 52.16015625 5.01953125 C51.01461701 11.89579453 49.88431727 18.77448323 48.76782227 25.65551758 C48.54671063 27.01568918 48.3246981 28.37571463 48.10180664 29.7355957 C46.8882773 37.14175904 45.73316578 44.52829929 45 52 C40.38 52 35.76 52 31 52 C29.35 42.76 27.7 33.52 26 24 C24.72583349 32.09196745 24.72583349 32.09196745 23.45727539 40.18481445 C23.21738892 41.69628052 23.21738892 41.69628052 22.97265625 43.23828125 C22.81031494 44.26993408 22.64797363 45.30158691 22.48071289 46.36450195 C22 49 22 49 21 52 C16.71 52 12.42 52 8 52 C5.61968924 40.18707478 3.51985385 28.35831687 1.75 16.4375 C1.57500977 15.26662842 1.40001953 14.09575684 1.21972656 12.8894043 C0.58461678 8.53085158 0 4.41205827 0 0 Z " fill="#F6F7FD" transform="translate(395,40)"/>
<path d="M0 0 C24 0 24 0 30 4 C31.64366184 7.28732368 31.18455332 10.9365422 31.203125 14.55078125 C31.20882507 15.40173874 31.21452515 16.25269623 31.22039795 17.12944031 C31.22985298 18.93255366 31.23638392 20.73568433 31.24023438 22.53881836 C31.24992487 25.29116198 31.28093675 28.04275408 31.3125 30.79492188 C31.31903163 32.54687057 31.32428147 34.2988246 31.328125 36.05078125 C31.3404718 36.87177811 31.3528186 37.69277496 31.36553955 38.53865051 C31.34752973 43.18334192 31.03243885 46.24231618 28 50 C20.21441174 55.19039218 9.35711257 52 0 52 C0 34.84 0 17.68 0 0 Z " fill="#F4F6FD" transform="translate(316,40)"/>
<path d="M0 0 C1.08087891 -0.00290039 1.08087891 -0.00290039 2.18359375 -0.00585938 C2.91707031 0.01798828 3.65054687 0.04183594 4.40625 0.06640625 C5.50646484 0.0499707 5.50646484 0.0499707 6.62890625 0.03320312 C12.16023235 0.10741591 15.87786416 1.60052041 19.90625 5.62890625 C20.04481148 8.74567951 20.11948534 11.83863648 20.14453125 14.95703125 C20.152603 15.89818787 20.16067474 16.83934448 20.16899109 17.809021 C20.18285128 19.80641833 20.19356473 21.80383954 20.20141602 23.80126953 C20.21860042 26.85234791 20.26246562 29.90233502 20.30664062 32.953125 C20.31676961 34.8919191 20.32528507 36.83072243 20.33203125 38.76953125 C20.34953934 39.68116028 20.36704742 40.59278931 20.38508606 41.53204346 C20.37065207 45.76167555 20.28577289 48.01944775 18.00463867 51.68261719 C13.87476649 55.5131397 9.91174681 54.84706899 4.53125 54.87890625 C3.66757812 54.89953125 2.80390625 54.92015625 1.9140625 54.94140625 C-4.42155678 54.98051501 -4.42155678 54.98051501 -7.6328125 53.30078125 C-10.03155498 50.55569627 -10.22771203 47.9158939 -10.30249023 44.42041016 C-10.32178085 43.57588287 -10.34107147 42.73135559 -10.36094666 41.86123657 C-10.4188085 38.00942469 -10.46793484 34.15779452 -10.4987793 30.30566406 C-10.52039017 28.27456695 -10.55452941 26.24356374 -10.60131836 24.21289062 C-10.66823759 21.28082816 -10.69576097 18.35068653 -10.71484375 15.41796875 C-10.74267441 14.51261383 -10.77050507 13.60725891 -10.79917908 12.67446899 C-10.77927458 6.57054254 -10.77927458 6.57054254 -8.85977173 3.93391418 C-6.15685658 1.53019577 -3.63581946 -0.0041026 0 0 Z " fill="#F9FAFD" transform="translate(367.09375,38.37109375)"/>
<path d="M0 0 C1.08087891 -0.00290039 1.08087891 -0.00290039 2.18359375 -0.00585938 C2.91707031 0.01798828 3.65054687 0.04183594 4.40625 0.06640625 C5.50646484 0.0499707 5.50646484 0.0499707 6.62890625 0.03320312 C11.79782125 0.10255351 14.82181177 1.23956067 18.90625 4.62890625 C21.02556075 7.80787238 21.1532103 8.55865157 21.13330078 12.19213867 C21.13314972 13.11286667 21.13299866 14.03359467 21.13284302 14.98222351 C21.12252045 15.9729335 21.11219788 16.96364349 21.1015625 17.984375 C21.0987326 19.00114822 21.09590271 20.01792145 21.09298706 21.06550598 C21.08178383 24.31592533 21.05667886 27.56607006 21.03125 30.81640625 C21.02122039 33.01887623 21.01209451 35.22135053 21.00390625 37.42382812 C20.981844 42.82562679 20.94731305 48.22721995 20.90625 53.62890625 C16.94625 53.62890625 12.98625 53.62890625 8.90625 53.62890625 C8.90625 48.01890625 8.90625 42.40890625 8.90625 36.62890625 C6.26625 36.62890625 3.62625 36.62890625 0.90625 36.62890625 C0.90625 42.23890625 0.90625 47.84890625 0.90625 53.62890625 C-2.72375 53.62890625 -6.35375 53.62890625 -10.09375 53.62890625 C-10.24216008 46.88461942 -10.35099911 40.14128447 -10.42333984 33.39575195 C-10.45349782 31.10163821 -10.49443116 28.80763963 -10.54638672 26.51391602 C-10.61924194 23.21471753 -10.65321693 19.91704408 -10.6796875 16.6171875 C-10.71065521 15.59305252 -10.74162292 14.56891754 -10.77352905 13.51374817 C-10.77678611 6.60975741 -10.77678611 6.60975741 -8.86199951 3.86009216 C-6.18306439 1.47579346 -3.59779226 -0.0040597 0 0 Z " fill="#F7F8FD" transform="translate(286.09375,38.37109375)"/>
<path d="M0 0 C0.75152344 -0.02900391 1.50304687 -0.05800781 2.27734375 -0.08789062 C7.57423779 -0.14797756 10.55140278 0.79845667 14.75 4.3125 C15.94791173 6.70832346 15.8706744 8.18027538 15.86352539 10.85400391 C15.86344986 11.79482819 15.86337433 12.73565247 15.86329651 13.70498657 C15.85813522 14.72273163 15.85297394 15.74047668 15.84765625 16.7890625 C15.8462413 17.82944672 15.84482635 18.86983093 15.84336853 19.94174194 C15.83775866 23.27369021 15.82520447 26.60557195 15.8125 29.9375 C15.80748627 32.19270736 15.80292314 34.44791578 15.79882812 36.703125 C15.78778602 42.23960907 15.77051475 47.77604325 15.75 53.3125 C12.12 53.3125 8.49 53.3125 4.75 53.3125 C4.75 47.7025 4.75 42.0925 4.75 36.3125 C2.11 36.3125 -0.53 36.3125 -3.25 36.3125 C-3.25 41.9225 -3.25 47.5325 -3.25 53.3125 C-7.21 53.3125 -11.17 53.3125 -15.25 53.3125 C-15.37382474 46.87132747 -15.46444733 40.43085142 -15.5246582 33.98876953 C-15.54976434 31.79854256 -15.58385637 29.60839906 -15.62719727 27.41845703 C-15.68801907 24.26574078 -15.71624923 21.11413447 -15.73828125 17.9609375 C-15.76408768 16.98571136 -15.7898941 16.01048523 -15.81648254 15.00570679 C-15.81833821 10.48269291 -15.75852844 7.31485457 -12.84448242 3.70947266 C-8.69661797 -0.12262796 -5.43270857 0.06847952 0 0 Z " fill="#F7F8FD" transform="translate(564.25,38.6875)"/>
<path d="M0 0 C1.30710937 0.00580078 1.30710937 0.00580078 2.640625 0.01171875 C3.54296875 0.03621094 4.4453125 0.06070313 5.375 0.0859375 C6.27734375 0.08722656 7.1796875 0.08851562 8.109375 0.08984375 C15.80442457 0.19229263 15.80442457 0.19229263 19.375 2.4609375 C21.50863651 5.66139226 21.62172228 6.44723186 21.60205078 10.1159668 C21.60189972 11.05671555 21.60174866 11.99746429 21.60159302 12.96672058 C21.59127045 13.97930435 21.58094788 14.99188812 21.5703125 16.03515625 C21.5674826 17.07412552 21.56465271 18.11309479 21.56173706 19.18354797 C21.55053282 22.50529447 21.52542764 25.82677235 21.5 29.1484375 C21.48997052 31.39908465 21.48084462 33.64973602 21.47265625 35.90039062 C21.45059265 41.42067658 21.41606099 46.94076148 21.375 52.4609375 C17.415 52.4609375 13.455 52.4609375 9.375 52.4609375 C9.375 37.9409375 9.375 23.4209375 9.375 8.4609375 C7.065 8.4609375 4.755 8.4609375 2.375 8.4609375 C2.375 22.9809375 2.375 37.5009375 2.375 52.4609375 C-1.255 52.4609375 -4.885 52.4609375 -8.625 52.4609375 C-8.72384695 45.69828566 -8.79645935 38.93605392 -8.84472656 32.17285156 C-8.86484688 29.87199581 -8.89214634 27.57119121 -8.92675781 25.27050781 C-8.97525612 21.96406433 -8.99796478 18.65829665 -9.015625 15.3515625 C-9.03627014 14.32226624 -9.05691528 13.29296997 -9.07818604 12.23248291 C-9.08041121 5.15686836 -9.08041121 5.15686836 -6.88964844 1.80908203 C-4.34146775 0.29215084 -2.94776288 -0.03060584 0 0 Z " fill="#F8FAFD" transform="translate(598.625,39.5390625)"/>
<path d="M0 0 C3.63 0 7.26 0 11 0 C11 6.93 11 13.86 11 21 C13.97 21 16.94 21 20 21 C20 14.07 20 7.14 20 0 C23.63 0 27.26 0 31 0 C31 16.83 31 33.66 31 51 C27.37 51 23.74 51 20 51 C20 44.4 20 37.8 20 31 C17.03 31 14.06 31 11 31 C11 37.6 11 44.2 11 51 C7.37 51 3.74 51 0 51 C0 34.17 0 17.34 0 0 Z " fill="#FCFDFE" transform="translate(235,41)"/>
<path d="M0 0 C1.21171875 -0.02578125 2.4234375 -0.0515625 3.671875 -0.078125 C8.3328296 0.34929878 11.64757052 1.80781346 15.125 4.9375 C16.82458046 8.43108205 16.44294508 11.39109842 16.25 15.25 C12.62 15.25 8.99 15.25 5.25 15.25 C5.25 13.6 5.25 11.95 5.25 10.25 C2.94 10.25 0.63 10.25 -1.75 10.25 C-1.75 13.88 -1.75 17.51 -1.75 21.25 C0.5084375 21.12625 0.5084375 21.12625 2.8125 21 C8.15258449 20.98482931 10.95048227 22.13971058 15.25 25.25 C17.11905348 28.98810695 16.52116522 33.44831178 16.5625 37.5625 C16.59150391 38.51318359 16.62050781 39.46386719 16.65039062 40.44335938 C16.69076288 44.88741318 16.7111984 47.49401499 14.35546875 51.35546875 C10.39393612 54.92011314 6.53993735 54.53668086 1.4375 54.625 C0.62990234 54.66238281 -0.17769531 54.69976562 -1.00976562 54.73828125 C-5.39800744 54.80297278 -7.18254359 54.69012832 -10.76171875 51.9140625 C-14.1855093 47.32658676 -13.92741781 43.74995206 -13.75 38.25 C-12.75 37.25 -12.75 37.25 -10.5 37.1171875 C-9.5925 37.11976562 -8.685 37.12234375 -7.75 37.125 C-6.38875 37.12113281 -6.38875 37.12113281 -5 37.1171875 C-2.75 37.25 -2.75 37.25 -1.75 38.25 C-1.70907063 40.58297433 -1.70758277 42.91705225 -1.75 45.25 C0.56 45.25 2.87 45.25 5.25 45.25 C5.25 40.96 5.25 36.67 5.25 32.25 C4.28578125 32.30800781 3.3215625 32.36601563 2.328125 32.42578125 C1.06484375 32.47089844 -0.1984375 32.51601562 -1.5 32.5625 C-2.75296875 32.62050781 -4.0059375 32.67851563 -5.296875 32.73828125 C-8.75 32.25 -8.75 32.25 -11.140625 29.85546875 C-13.9263107 25.34563292 -14.0342193 21.71576382 -14.125 16.5 C-14.16238281 15.70078125 -14.19976562 14.9015625 -14.23828125 14.078125 C-14.3011315 9.83224178 -14.08607873 7.09776969 -11.3515625 3.734375 C-7.44175428 0.00068427 -5.34101541 0.06760779 0 0 Z " fill="#F2F5FC" transform="translate(209.75,38.75)"/>
<path d="M0 0 C2.30603252 2.24014587 3.14146776 3.10492566 3.28515625 6.2890625 C3.25260417 8.56770833 3.22005208 10.84635417 3.1875 13.125 C-0.4425 13.125 -4.0725 13.125 -7.8125 13.125 C-8.1425 11.475 -8.4725 9.825 -8.8125 8.125 C-11.7825 7.63 -11.7825 7.63 -14.8125 7.125 C-14.8125 11.415 -14.8125 15.705 -14.8125 20.125 C-12.770625 20.0425 -10.72875 19.96 -8.625 19.875 C-4.45308174 19.70643765 -2.46920113 19.69138015 1.05078125 22.015625 C4.60128414 25.52069184 4.36249935 28.04194007 4.421875 32.81054688 C4.42703125 33.67744141 4.4321875 34.54433594 4.4375 35.4375 C4.458125 36.29279297 4.47875 37.14808594 4.5 38.02929688 C4.53003172 42.87566611 4.41040385 46.23191287 1.1875 50.125 C-2.94745474 52.8816365 -6.32449499 52.56658553 -11.1875 52.625 C-12.46367187 52.686875 -12.46367187 52.686875 -13.765625 52.75 C-19.80265071 52.82522773 -19.80265071 52.82522773 -22.51733398 50.94287109 C-24.67323104 48.57409783 -25.74745883 46.49443383 -26.30078125 43.3515625 C-26.13802083 40.94270833 -25.97526042 38.53385417 -25.8125 36.125 C-22.1825 36.125 -18.5525 36.125 -14.8125 36.125 C-14.8125 38.435 -14.8125 40.745 -14.8125 43.125 C-11.3475 42.63 -11.3475 42.63 -7.8125 42.125 C-7.8125 38.495 -7.8125 34.865 -7.8125 31.125 C-8.69292969 31.11082031 -9.57335937 31.09664062 -10.48046875 31.08203125 C-11.64191406 31.03433594 -12.80335938 30.98664063 -14 30.9375 C-15.14855469 30.90269531 -16.29710937 30.86789063 -17.48046875 30.83203125 C-21.87665841 29.89919382 -23.28210274 28.85030707 -25.8125 25.125 C-26.50287616 21.60352029 -26.46603268 18.20233842 -26.375 14.625 C-26.38595703 13.68785156 -26.39691406 12.75070313 -26.40820312 11.78515625 C-26.36248116 7.4872911 -26.20459065 4.80450939 -24.02734375 1.03125 C-18.50199402 -3.72425382 -6.04891741 -3.97838333 0 0 Z " fill="#F6F7FD" transform="translate(498.8125,40.875)"/>
<path d="M0 0 C0.84691406 0.50660156 1.69382813 1.01320313 2.56640625 1.53515625 C3.1399585 1.86676758 3.71351074 2.19837891 4.30444336 2.54003906 C6.36635528 3.74197841 8.4029644 4.98137302 10.44140625 6.22265625 C24.01890984 14.33448369 37.58000941 21.2459307 53.56640625 22.53515625 C52.91052695 32.70128547 49.15502095 40.61547227 44.50390625 49.53515625 C44.16351318 50.19467285 43.82312012 50.85418945 43.47241211 51.53369141 C41.74757713 54.7584741 40.66513285 56.46933852 37.56640625 58.53515625 C38.18395346 55.00631503 39.13165948 51.86536509 40.44140625 48.53515625 C42.76118433 42.32932658 44.20765104 36.00983069 45.56640625 29.53515625 C44.54804687 29.41914062 43.5296875 29.303125 42.48046875 29.18359375 C29.57744299 27.04596673 9.82641417 18.79516417 0.56640625 9.53515625 C-2.6539118 9.9232284 -5.09603111 11.3641224 -7.87109375 12.97265625 C-33.80591753 27.33441351 -33.80591753 27.33441351 -47.43359375 29.53515625 C-46.20312974 37.16403311 -43.97055431 44.20724893 -41.37841797 51.46435547 C-40.67727437 53.47025073 -40.04919024 55.50137673 -39.43359375 57.53515625 C-39.76359375 58.19515625 -40.09359375 58.85515625 -40.43359375 59.53515625 C-48.17058618 49.60067485 -56.43359375 35.50614226 -56.43359375 22.53515625 C-55.69496094 22.4371875 -54.95632812 22.33921875 -54.1953125 22.23828125 C-39.38193231 20.05486054 -25.87046839 13.9022737 -13.25 5.9453125 C-12.24114746 5.3114563 -12.24114746 5.3114563 -11.21191406 4.66479492 C-9.92778269 3.84522821 -8.65426811 3.00871627 -7.39355469 2.15356445 C-3.11538099 -0.59507277 -3.11538099 -0.59507277 0 0 Z " fill="#F2F4FA" transform="translate(75.43359375,7.46484375)"/>
<path d="M0 0 C1.20269531 -0.02578125 2.40539062 -0.0515625 3.64453125 -0.078125 C8.44260883 0.36623941 11.77839516 1.84089516 15.1875 5.25 C15.46379475 8.93024605 15.2734315 12.55494557 15.1875 16.25 C11.5575 16.25 7.9275 16.25 4.1875 16.25 C4.1875 13.61 4.1875 10.97 4.1875 8.25 C1.8775 8.25 -0.4325 8.25 -2.8125 8.25 C-2.8125 20.79 -2.8125 33.33 -2.8125 46.25 C-0.5025 46.25 1.8075 46.25 4.1875 46.25 C4.1875 42.95 4.1875 39.65 4.1875 36.25 C8.1475 36.25 12.1075 36.25 16.1875 36.25 C16.76149103 46.86883408 16.76149103 46.86883408 12.1875 52.25 C8.9872336 55.4502664 5.22924215 54.65836381 0.875 54.6875 C0.01970703 54.72037109 -0.83558594 54.75324219 -1.71679688 54.78710938 C-6.30261919 54.826183 -8.17718904 54.76461003 -11.85546875 51.78515625 C-12.50128906 50.94855469 -13.14710938 50.11195312 -13.8125 49.25 C-14.1425 48.92 -14.4725 48.59 -14.8125 48.25 C-15.10565116 42.33799464 -15.1266155 36.42346137 -15.16259766 30.50488281 C-15.17914085 28.50867033 -15.20640925 26.51251669 -15.24462891 24.51660156 C-15.29943475 21.64096288 -15.32127926 18.76671585 -15.3359375 15.890625 C-15.35860687 15.00086975 -15.38127625 14.1111145 -15.40463257 13.19439697 C-15.3894301 8.72830952 -15.27602134 6.85085027 -12.46728516 3.20996094 C-8.30531323 0.13728201 -5.06199747 0.06469006 0 0 Z " fill="#F6F7FD" transform="translate(525.8125,38.75)"/>
<path d="M0 0 C4.17383395 3.92831431 7.89394426 8.16479983 11 13 C11 13.66 11 14.32 11 15 C11.66 15 12.32 15 13 15 C14.41438406 16.57286684 15.75604401 18.21139996 17.0625 19.875 C25.39426879 30.23987984 33.85326576 39.56884384 45 47 C50.9071661 46.97471969 54.03984782 43.95614073 58.1875 40.1875 C58.8460498 39.60000977 59.50459961 39.01251953 60.18310547 38.40722656 C69.82644777 29.6806231 77.95434253 20.05224099 85.67431641 9.61035156 C86.45427979 8.56186035 86.45427979 8.56186035 87.25 7.4921875 C87.70890625 6.86683105 88.1678125 6.24147461 88.640625 5.59716797 C90 4 90 4 93 2 C86.39963644 24.36789872 68.69276746 45.73654392 48.48828125 57.45703125 C46 58 46 58 43.3515625 56.65625 C42.45179687 55.9446875 41.55203125 55.233125 40.625 54.5 C39.66335937 53.7471875 38.70171875 52.994375 37.7109375 52.21875 C36.81632812 51.4865625 35.92171875 50.754375 35 50 C34.33226562 49.4740625 33.66453125 48.948125 32.9765625 48.40625 C28.45126362 44.72048621 24.72927344 40.47189932 21 36 C20.38382813 35.30648437 19.76765625 34.61296875 19.1328125 33.8984375 C12.85240047 26.55867886 0 10.04637109 0 0 Z " fill="#ECEFF8" transform="translate(27,62)"/>
<path d="M0 0 C3 0.125 3 0.125 4 1.125 C4.08858646 3.86394085 4.11523479 6.5775327 4.09765625 9.31640625 C4.0962413 10.13624496 4.09482635 10.95608368 4.09336853 11.80076599 C4.08775289 14.42971382 4.07519779 17.05857773 4.0625 19.6875 C4.05748701 21.46549357 4.05292376 23.24348846 4.04882812 25.02148438 C4.03777839 29.38935545 4.02050331 33.75716348 4 38.125 C1.36 38.125 -1.28 38.125 -4 38.125 C-4.02464928 32.87394558 -4.04283568 27.62292455 -4.05493164 22.37182617 C-4.05997218 20.58405979 -4.06680454 18.79629755 -4.07543945 17.00854492 C-4.0875173 14.44448832 -4.09323094 11.88048603 -4.09765625 9.31640625 C-4.10281754 8.5122377 -4.10797882 7.70806915 -4.11329651 6.87953186 C-4.11349215 4.96098285 -4.06201983 3.04254632 -4 1.125 C-3 0.125 -3 0.125 0 0 Z " fill="#4D73E2" transform="translate(372,46.875)"/>
<path d="M0 0 C2.31 0 4.62 0 7 0 C7 11.55 7 23.1 7 35 C4.69 35 2.38 35 0 35 C0 23.45 0 11.9 0 0 Z " fill="#4269E1" transform="translate(328,49)"/>
<path d="M0 0 C4.17383395 3.92831431 7.89394426 8.16479983 11 13 C11 13.66 11 14.32 11 15 C11.66 15 12.32 15 13 15 C14.54091405 16.69588264 16.00923297 18.45821672 17.4375 20.25 C18.21996094 21.22453125 19.00242187 22.1990625 19.80859375 23.203125 C21.5683617 25.44910335 23.30216098 27.70709843 25 30 C21.04 30.495 21.04 30.495 17 31 C12.110605 24.70207068 8.27017344 18.04034673 4.5625 11 C3.88888428 9.72612427 3.88888428 9.72612427 3.20166016 8.42651367 C0 2.26198436 0 2.26198436 0 0 Z " fill="#EFF2FB" transform="translate(27,62)"/>
<path d="M0 0 C2.31 0 4.62 0 7 0 C8 1 8 1 8.11352539 2.76586914 C8.10828857 3.51473389 8.10305176 4.26359863 8.09765625 5.03515625 C8.09443359 5.84404297 8.09121094 6.65292969 8.08789062 7.48632812 C8.07951172 8.33646484 8.07113281 9.18660156 8.0625 10.0625 C8.05798828 10.91650391 8.05347656 11.77050781 8.04882812 12.65039062 C8.03700373 14.76695663 8.01906769 16.88348685 8 19 C5.36 19 2.72 19 0 19 C0 12.73 0 6.46 0 0 Z " fill="#5176E3" transform="translate(561,47)"/>
<path d="M0 0 C3 0.125 3 0.125 4 1.125 C4.08631874 2.46767413 4.10706473 3.81474322 4.09765625 5.16015625 C4.09443359 5.96904297 4.09121094 6.77792969 4.08789062 7.61132812 C4.07951172 8.46146484 4.07113281 9.31160156 4.0625 10.1875 C4.05798828 11.04150391 4.05347656 11.89550781 4.04882812 12.77539062 C4.03700373 14.89195663 4.01906769 17.00848685 4 19.125 C1.36 19.125 -1.28 19.125 -4 19.125 C-4.02683987 16.14577407 -4.04676037 13.16678705 -4.0625 10.1875 C-4.07087891 9.33736328 -4.07925781 8.48722656 -4.08789062 7.61132812 C-4.09111328 6.80244141 -4.09433594 5.99355469 -4.09765625 5.16015625 C-4.10289307 4.4112915 -4.10812988 3.66242676 -4.11352539 2.89086914 C-3.91438253 -0.20676589 -3.13876126 0.13078172 0 0 Z " fill="#5075E2" transform="translate(291,46.875)"/>
<path d="M0 0 C2.46004977 4.6798313 4.01044422 9.62408015 5.6875 14.625 C6.02072266 15.59179688 6.35394531 16.55859375 6.69726562 17.5546875 C7.16229492 18.93914063 7.16229492 18.93914063 7.63671875 20.3515625 C7.92248779 21.19541504 8.20825684 22.03926758 8.50268555 22.90869141 C9 25 9 25 8 27 C-4 11.05763689 -4 11.05763689 -4 4 C-3.01 3.67 -2.02 3.34 -1 3 C-0.67 2.01 -0.34 1.02 0 0 Z " fill="#EAEFFB" transform="translate(27,40)"/>
<path d="M0 0 C2.5625 2.25 2.5625 2.25 5 5 C4.47989063 9.24064631 2.11052773 12.91014167 0.125 16.625 C-0.22691406 17.305625 -0.57882813 17.98625 -0.94140625 18.6875 C-2.70457986 22.00410166 -3.82314566 23.88209711 -7 26 C-6.37421177 22.40655627 -5.39066052 19.20557424 -4.0625 15.8125 C-2.11861588 10.60995924 -0.90206951 5.47176371 0 0 Z " fill="#DEE4F6" transform="translate(120,40)"/>
<path d="M0 0 C5.00918744 1.47329042 7.51807722 4.27515238 11 8 C10.34 9.32 9.68 10.64 9 12 C5 12 5 12 2.859375 10.03125 C2.16328125 9.1959375 1.4671875 8.360625 0.75 7.5 C0.04359375 6.6646875 -0.6628125 5.829375 -1.390625 4.96875 C-2.18726563 3.99421875 -2.18726563 3.99421875 -3 3 C-2.01 2.01 -1.02 1.02 0 0 Z " fill="#F9FAFC" transform="translate(48,91)"/>
<path d="M0 0 C1.32 0.66 2.64 1.32 4 2 C2.63629701 4.99220268 1.05091917 7.29026529 -1.125 9.75 C-1.93324219 10.67039062 -1.93324219 10.67039062 -2.7578125 11.609375 C-3.37269531 12.29773438 -3.37269531 12.29773438 -4 13 C-5.32 12.34 -6.64 11.68 -8 11 C-8 8 -8 8 -6.25 5.95703125 C-5.5075 5.24933594 -4.765 4.54164062 -4 3.8125 C-2.88625 2.73935547 -2.88625 2.73935547 -1.75 1.64453125 C-1.1725 1.10183594 -0.595 0.55914062 0 0 Z " fill="#F7F8FC" transform="translate(99,91)"/>
<path d="M0 0 C0.66 0.33 1.32 0.66 2 1 C1.50628906 1.48210938 1.01257813 1.96421875 0.50390625 2.4609375 C-0.45708984 3.40839844 -0.45708984 3.40839844 -1.4375 4.375 C-2.07558594 5.00148438 -2.71367188 5.62796875 -3.37109375 6.2734375 C-5.07882176 7.91723061 -5.07882176 7.91723061 -6 10 C-5.34 10.33 -4.68 10.66 -4 11 C-8.95 12.485 -8.95 12.485 -14 14 C-12.68 11.69 -11.36 9.38 -10 7 C-11.65 7 -13.3 7 -15 7 C-11.81288915 5.39133978 -8.60560783 3.8320177 -5.375 2.3125 C-4.41335937 1.85488281 -3.45171875 1.39726562 -2.4609375 0.92578125 C-1.64882813 0.62027344 -0.83671875 0.31476562 0 0 Z " fill="#E7EAF2" transform="translate(49,21)"/>
<path d="M0 0 C2.62187494 1.04874998 3.79371361 1.64931313 5.25 4.125 C5.4975 4.74375 5.745 5.3625 6 6 C4.421924 6.84324672 2.8372958 7.67423918 1.25 8.5 C0.36828125 8.9640625 -0.5134375 9.428125 -1.421875 9.90625 C-4 11 -4 11 -8 11 C-6.63629701 8.00779732 -5.05091917 5.70973471 -2.875 3.25 C-2.33617187 2.63640625 -1.79734375 2.0228125 -1.2421875 1.390625 C-0.62730469 0.70226562 -0.62730469 0.70226562 0 0 Z " fill="#F8F9FC" transform="translate(51,20)"/>
<path d="M0 0 C1.98 0 3.96 0 6 0 C5.01 0.66 4.02 1.32 3 2 C3.825 2.70125 4.65 3.4025 5.5 4.125 C8 7 8 7 8.3125 10.3125 C8.1578125 11.6428125 8.1578125 11.6428125 8 13 C6.68 13.33 5.36 13.66 4 14 C3.32471777 12.42032193 2.66010306 10.83608097 2 9.25 C1.62875 8.36828125 1.2575 7.4865625 0.875 6.578125 C0 4 0 4 0 0 Z " fill="#EEEFF5" transform="translate(19,30)"/>
<path d="M0 0 C2.85685667 1.17204376 3.84383553 2.3998106 5.4375 5 C3.7875 6.32 2.1375 7.64 0.4375 9 C-3.21566671 7.75023244 -4.34315836 7.32901247 -6.5625 4 C-3.28977273 0 -3.28977273 0 0 0 Z " fill="#F5F7FC" transform="translate(74.5625,111)"/>
<path d="M0 0 C3.95820859 0.56545837 6.6659053 1.80902348 10 4 C9.67 4.99 9.34 5.98 9 7 C10.87197454 9.69433317 10.87197454 9.69433317 13 12 C9.0507432 11.44894091 5.65079826 10.61064629 2 9 C2.99 8.01 3.98 7.02 5 6 C3.35 4.02 1.7 2.04 0 0 Z " fill="#DEE1EB" transform="translate(101,23)"/>
<path d="M0 0 C4.17383395 3.92831431 7.89394426 8.16479983 11 13 C11 13.66 11 14.32 11 15 C11.66 15.33 12.32 15.66 13 16 C12.01 16 11.02 16 10 16 C9.67 16.66 9.34 17.32 9 18 C0 4.13114754 0 4.13114754 0 0 Z " fill="#E2E7F6" transform="translate(27,62)"/>
<path d="M0 0 C0.66 0.33 1.32 0.66 2 1 C0.78437378 1.9449231 0.78437378 1.9449231 -0.45581055 2.90893555 C-3.49254439 5.96709114 -3.61872655 8.6314128 -3.71894836 12.81758118 C-3.71304939 14.12410896 -3.71304939 14.12410896 -3.70703125 15.45703125 C-3.72215256 16.35999435 -3.73727386 17.26295746 -3.75285339 18.19328308 C-3.79571149 21.06660979 -3.80456649 23.93888558 -3.8125 26.8125 C-3.8356458 28.76500186 -3.86101131 30.71747876 -3.88867188 32.66992188 C-3.95150558 37.44670741 -3.98385559 42.22283772 -4 47 C-4.33 47 -4.66 47 -5 47 C-5.12375961 41.11018515 -5.21441514 35.22112988 -5.2746582 29.33032227 C-5.2997755 27.32725844 -5.33387595 25.32428602 -5.37719727 23.3215332 C-5.43797188 20.43938634 -5.46623732 17.55845279 -5.48828125 14.67578125 C-5.51408768 13.78288895 -5.5398941 12.88999664 -5.56648254 11.970047 C-5.5683888 7.72756497 -5.55535756 5.00399967 -2.46948242 1.89526367 C-1.24708862 0.95710815 -1.24708862 0.95710815 0 0 Z " fill="#C5E1FA" transform="translate(516,40)"/>
<path d="M0 0 C-1.33333333 2.66666667 -2.66666667 5.33333333 -4 8 C-4.99 8 -5.98 8 -7 8 C-7 7.01 -7 6.02 -7 5 C-8.65 5 -10.3 5 -12 5 C-10.66666667 4.33333333 -9.33333333 3.66666667 -8 3 C-6.96875 2.46375 -5.9375 1.9275 -4.875 1.375 C-2 0 -2 0 0 0 Z " fill="#DADEEB" transform="translate(46,23)"/>
<path d="M0 0 C2.12046792 3.53411321 2.53199289 6.94393835 3 11 C1 8 1 8 0 6 C-0.99 6.66 -1.98 7.32 -3 8 C-3.33 6.68 -3.66 5.36 -4 4 C-3.01 3.67 -2.02 3.34 -1 3 C-0.67 2.01 -0.34 1.02 0 0 Z " fill="#D9DFF1" transform="translate(27,40)"/>
<path d="M0 0 C0.33 0 0.66 0 1 0 C1.08159574 4.16138263 0.98248524 7.9472484 0 12 C-0.66 12 -1.32 12 -2 12 C-2.21278058 7.53160785 -1.59138085 4.17737474 0 0 Z " fill="#91B0F0" transform="translate(433,64)"/>
<path d="M0 0 C1.32 0.33 2.64 0.66 4 1 C3.6875 2.9375 3.6875 2.9375 3 5 C2.01 5.33 1.02 5.66 0 6 C-0.66 5.67 -1.32 5.34 -2 5 C-1.34 3.35 -0.68 1.7 0 0 Z " fill="#6986E0" transform="translate(118,59)"/>
<path d="M0 0 C0.99 0.66 1.98 1.32 3 2 C1.68 3.65 0.36 5.3 -1 7 C-2.32 6.34 -3.64 5.68 -5 5 C-3.35 3.35 -1.7 1.7 0 0 Z " fill="#E4E6EE" transform="translate(94,19)"/>
<path d="M0 0 C2.18975773 3.28463659 2.99806563 6.20696275 4 10 C1.4375 7.8125 1.4375 7.8125 -1 5 C-0.8125 2.1875 -0.8125 2.1875 0 0 Z " fill="#B9C7EF" transform="translate(32,57)"/>
<path d="M0 0 C1.32 1.32 2.64 2.64 4 4 C1.36 4.33 -1.28 4.66 -4 5 C-2.68 3.35 -1.36 1.7 0 0 Z " fill="#D9DEEC" transform="translate(48,88)"/>
</svg>
